<?xml version="1.0" encoding="UTF-8"?>
<svg id="A_MEDIDA" data-name="A MEDIDA" xmlns="http://www.w3.org/2000/svg" viewBox="0 0 680.31 680.31">
  <path d="M441.22,213.03c-22.9-6.28-46.66-9.47-70.62-9.47s-48.39,3.28-71.59,9.74c-5.32,1.48-8.43,7-6.95,12.32,1.23,4.42,5.25,7.32,9.63,7.32,.89,0,1.79-.12,2.69-.37,21.45-5.97,43.74-9,66.23-9s44.16,2.95,65.33,8.75c5.33,1.46,10.83-1.67,12.29-7,1.46-5.33-1.67-10.83-7-12.29Z" fill="#fff"/>
  <path d="M191.47,268.8c-9.49,0-17.19,7.69-17.19,17.18s7.69,17.19,17.19,17.19,17.19-7.69,17.19-17.19-7.69-17.18-17.19-17.18Z" fill="#fff"/>
  <path d="M639.39,285.67c-.83-8.95-5.09-17.03-12.01-22.77-6.91-5.74-15.65-8.44-24.59-7.61-7.69,.71-14.64,4.38-19.57,10.32-4.93,5.94-7.25,13.45-6.54,21.13,.51,5.5,5.38,9.55,10.88,9.03,5.5-.51,9.54-5.38,9.03-10.88-.22-2.37,.5-4.68,2.02-6.51,1.52-1.83,3.66-2.96,6.03-3.18,3.62-.34,7.16,.76,9.97,3.08,2.8,2.33,4.53,5.6,4.87,9.23,1,10.73-6.92,20.27-17.65,21.26-13.15,1.22-24.99-7.28-28.41-19.57-.24-1.27-.5-2.53-.77-3.78-.04-.32-.08-.64-.12-.97-.1-1.09-.38-2.12-.79-3.07-6.98-29.48-20.84-55.9-40.7-76.84-31.55-33.27-75.5-50.86-127.1-50.86-5.59,0-11.13-.03-16.62-.07-38.56-.23-75.95-.46-116.56,11.11l.03-.05c-33.68-17.72-74.69-25.32-118.59-21.95-6.93,.53-12.98,4.54-16.18,10.72-3.21,6.2-3,13.47,.57,19.46,12.1,20.28,20.97,37.83,25.55,50.41-12.94,10.32-23.17,22.29-33.06,33.87-8.55,10.01-16.62,19.46-25.76,27.03-17.71,14.67-45.7,15.47-45.96,15.48-2.82,.05-5.49,1.29-7.34,3.42-1.86,2.12-2.73,4.93-2.4,7.74l11.26,96.59c.59,5.04,4.86,8.84,9.93,8.84,35.72,0,61.56,24.23,61.8,24.46,.15,.15,.31,.29,.47,.42l106.82,90.67c1.81,1.53,4.1,2.38,6.47,2.38h27.36c3.47,0,6.69-1.79,8.51-4.74l24.14-39.08c17.37,2.6,34.98,3.92,52.68,3.92,20.92,0,41.71-1.84,62.15-5.47l25.1,40.64c1.82,2.95,5.04,4.74,8.51,4.74h27.36c3.62,0,6.96-1.96,8.73-5.12l67.9-121.33c.04-.07,.07-.13,.11-.2,13.11-24.74,20.03-52.71,20.03-80.88,0-1.18-.02-2.36-.04-3.53,6.71,3.67,14.36,5.74,22.41,5.74,1.44,0,2.9-.07,4.37-.2,21.71-2.01,37.73-21.32,35.72-43.02ZM243.28,174.26c-20.38,8.38-41.74,20.1-64.57,36.51-6.54-16.01-16.65-34.21-24.9-48.11,31.91-2.43,62.97,1.66,89.48,11.6Zm296,223.83l-64.98,116.11h-15.92l-18.36-29.73c3.98-.96,7.94-1.98,11.88-3.08,5.32-1.48,8.43-7,6.95-12.32-1.48-5.32-7-8.43-12.32-6.95-28.99,8.07-59.1,12.17-89.49,12.17s-59.66-3.98-88.28-11.83c-5.32-1.46-10.83,1.67-12.29,7-1.46,5.33,1.67,10.83,7,12.29,6.53,1.79,13.12,3.38,19.75,4.79l-17.09,27.66h-18.11l-103.81-88.12c-3.06-2.87-28.92-26.08-66.47-29.41l-9.09-77.99c12.17-1.72,32.1-6.39,47.41-19.08,10.46-8.67,19.48-19.23,28.2-29.44,9.36-10.96,19.04-22.29,30.62-31.46,83.13-65.89,142.99-65.51,212.3-65.09,5.54,.03,11.12,.07,16.75,.07,76.67,0,133.64,45.58,148.91,114.68,.27,2,.68,3.95,1.19,5.85,1.9,10.35,2.88,21.19,2.88,32.46,0,24.88-6.1,49.57-17.65,71.41Z" fill="#fff"/>
</svg>