<?xml version="1.0" encoding="UTF-8"?>
<svg id="PUNTUALIDAD" xmlns="http://www.w3.org/2000/svg" viewBox="0 0 680.31 680.31">
  <path
    d="M473.3,336.97c12.03-12.38,18.8-28.85,18.8-46.37,0-36.77-29.92-66.69-66.69-66.69-5.79,0-11.47,.75-17,2.21l-45.1-77.05c-3.29-5.63-9.14-9.3-15.64-9.83-6.49-.53-12.87,2.16-17.02,7.18l-160.01,193.35-71.56,47.26c-17.69,10.45-30.29,27.15-35.48,47.05-5.21,19.98-2.33,40.8,8.11,58.62,10.44,17.82,27.2,30.5,47.19,35.72,6.51,1.7,13.1,2.54,19.65,2.54,13.56,0,26.94-3.6,38.96-10.64l14.62-8.47,37.52,64.31c5.56,9.52,15.65,14.86,26,14.86,5.04,0,10.14-1.27,14.8-3.93l14.84-8.48c7.01-4.01,12.02-10.51,14.1-18.31,2.08-7.8,.98-15.94-3.11-22.9l-35.84-61.14,243.49-32.04c6.66-.88,12.4-5,15.35-11.04s2.69-13.1-.7-18.9l-45.25-77.31Zm-47.89-93.06c25.75,0,46.69,20.95,46.69,46.69,0,10.33-3.36,20.15-9.45,28.17l-34.1-58.26-9.47-16.18c2.09-.28,4.2-.43,6.33-.43ZM167.43,503.02l-.04,.03c-13.21,7.74-28.64,9.88-43.46,6.01-14.82-3.86-27.24-13.27-34.98-26.48-7.74-13.21-9.88-28.64-6.01-43.46s13.27-27.24,26.48-34.98l61.68-40.71,60.16,102.63-63.82,36.97Zm112.6,52.12c-.69,2.6-2.36,4.77-4.7,6.1l-14.84,8.48c-4.75,2.71-10.84,1.08-13.6-3.64l-37.48-64.26,31.96-18.51,37.63,64.2c1.36,2.32,1.73,5.03,1.04,7.63Zm-92.92-203.92l114.61-138.48,129.9,220.82-182.18,23.97-62.32-106.31Zm266.04,79.5l-137.87-234.38,30.76-37.17,43.38,74.11h0s68.34,116.75,68.34,116.75h0s43.52,74.35,43.52,74.35l-48.14,6.33Z"
    fill="white" />
  <path
    d="M625.41,172.81c-2.76-4.78-8.88-6.42-13.66-3.66l-84.88,49.01c-4.78,2.76-6.42,8.88-3.66,13.66,1.85,3.21,5.21,5,8.67,5,1.7,0,3.42-.43,4.99-1.34l84.88-49.01c4.78-2.76,6.42-8.88,3.66-13.66Z"
    fill="white" />
  <path
    d="M611.58,309.29l-63.11-16.91c-5.33-1.43-10.82,1.74-12.25,7.07-1.43,5.33,1.74,10.82,7.07,12.25l63.11,16.91c.87,.23,1.74,.34,2.59,.34,4.42,0,8.46-2.95,9.65-7.41,1.43-5.33-1.74-10.82-7.07-12.25Z"
    fill="white" />
  <path
    d="M469.69,186.87c.87,.23,1.74,.34,2.59,.34,4.42,0,8.46-2.95,9.65-7.41l16.91-63.11c1.43-5.33-1.74-10.82-7.07-12.25-5.33-1.43-10.82,1.74-12.25,7.07l-16.91,63.11c-1.43,5.33,1.74,10.82,7.07,12.25Z"
    fill="white" />
</svg>