<?xml version="1.0" encoding="UTF-8"?>
<svg id="PUNTUALIDAD" xmlns="http://www.w3.org/2000/svg" viewBox="0 0 680.31 680.31">
  <path d="M166.84,283.51c17.61,0,31.89-14.28,31.89-31.89,0-2.19-.22-4.34-.64-6.41l58.17-36.35c5.84,6.66,14.41,10.87,23.97,10.87,12.64,0,23.56-7.36,28.72-18.02l60.44,13.43c2.82,14.72,15.77,25.85,31.31,25.85,17.61,0,31.89-14.28,31.89-31.89,0-1.86-.17-3.69-.48-5.47l73.48-57.15c5.78,5.84,13.8,9.46,22.67,9.46,17.61,0,31.89-14.28,31.89-31.89s-14.28-31.89-31.89-31.89-31.89,14.28-31.89,31.89c0,1.37,.1,2.73,.27,4.05l-74.17,57.69c-5.7-5.33-13.35-8.59-21.76-8.59-12.64,0-23.56,7.36-28.72,18.02l-60.44-13.43c-2.82-14.72-15.77-25.85-31.31-25.85-17.61,0-31.89,14.28-31.89,31.89,0,.78,.04,1.55,.09,2.32l-60.32,37.7c-5.64-5.06-13.09-8.13-21.27-8.13-17.61,0-31.89,14.28-31.89,31.89s14.28,31.89,31.89,31.89Z" fill="white"/>
  <path d="M602.46,571.14h-25.23V281.98c0-12.49-10.16-22.65-22.65-22.65h-45.57c-12.49,0-22.65,10.16-22.65,22.65v289.16h-31.97v-199.07c0-11.37-9.25-20.62-20.62-20.62h-49.63c-11.37,0-20.62,9.25-20.62,20.62v199.07h-31.97v-219.83c0-11.65-9.47-21.12-21.12-21.12h-48.63c-11.65,0-21.12,9.47-21.12,21.12v219.83h-31.97v-157.63c0-10.77-8.76-19.53-19.53-19.53h-51.8c-10.77,0-19.54,8.76-19.54,19.53v157.63h-25.64c-5.52,0-10,4.48-10,10s4.48,10,10,10h510.24c5.52,0,10-4.48,10-10s-4.48-10-10-10Zm-464.6,0v-157.17h50.87v157.17h-50.87Zm122.83,0v-219.83c0-.62,.5-1.12,1.12-1.12h48.63c.62,0,1.12,.5,1.12,1.12v219.83h-50.87Zm122.83,0v-199.07c0-.34,.28-.62,.62-.62h49.63c.34,0,.62,.28,.62,.62v199.07h-50.87Zm122.83,0V281.98c0-1.46,1.19-2.65,2.65-2.65h45.57c1.46,0,2.65,1.19,2.65,2.65v289.16h-50.87Z" fill="white"/>
</svg>