<?xml version="1.0" encoding="UTF-8"?>
<svg id="PUNTUALIDAD" xmlns="http://www.w3.org/2000/svg" viewBox="0 0 680.31 680.31">
  <path d="M617.49,489.75l-22.61-22.61c-5.97-5.97-13.9-9.25-22.34-9.25-4.42,0-8.7,.91-12.63,2.63l-41.15-41.15v-66.22c0-13.17-8.44-24.67-21.01-28.62l-252.31-79.3,79.3,252.31c3.95,12.56,15.45,21,28.62,21h66.22l41.16,41.16c-5.02,11.56-2.82,25.52,6.61,34.96l22.61,22.61c6.16,6.16,14.25,9.24,22.34,9.24s16.18-3.08,22.34-9.24l82.85-82.85c12.32-12.32,12.32-32.36,0-44.68Zm-264.13,8.8c-4.39,0-8.22-2.81-9.54-7l-61.32-195.12,79.64,79.64c-3.24,5.63-5.11,12.14-5.11,19.09,0,21.14,17.2,38.35,38.35,38.35s38.35-17.2,38.35-38.35-17.2-38.35-38.35-38.35c-6.95,0-13.47,1.87-19.09,5.11l-79.64-79.64,195.12,61.32c4.19,1.32,7,5.15,7,9.54v74.5l45.46,45.46-70.9,70.9-45.47-45.46h-74.5Zm42.01-121.73c10.12,0,18.35,8.23,18.35,18.35s-8.23,18.35-18.35,18.35-18.35-8.23-18.35-18.35,8.23-18.35,18.35-18.35Zm207.98,143.47l-82.85,82.85c-4.52,4.52-11.88,4.52-16.39,0l-22.61-22.61c-4.52-4.52-4.52-11.88,0-16.4l82.85-82.85c2.19-2.19,5.1-3.4,8.2-3.4s6.01,1.21,8.2,3.4l22.61,22.61c2.19,2.19,3.4,5.1,3.4,8.2s-1.21,6.01-3.4,8.2Z" fill="#fff"/>
  <path d="M498.67,88.88c3.33,14.05,15.95,24.51,31.02,24.51,17.61,0,31.89-14.28,31.89-31.89s-14.28-31.89-31.89-31.89c-13.07,0-24.3,7.87-29.22,19.12-52.5,3.01-103.48,14.84-151.88,35.31-43.89,18.56-84.18,43.56-120.18,74.5-2.25-.88-4.69-1.38-7.26-1.38h-23.78c-11.05,0-20,8.95-20,20v23.78c0,2.56,.5,5,1.38,7.26-30.95,36-55.94,76.29-74.5,120.18-20.19,47.73-31.99,97.97-35.19,149.7-14.96,2.63-26.33,15.68-26.33,31.4,0,17.61,14.28,31.89,31.89,31.89s31.89-14.28,31.89-31.89c0-12.46-7.15-23.25-17.57-28.49,5.84-99.11,44.7-189.48,105.7-260.25,.9,.12,1.81,.21,2.74,.21h23.78c11.05,0,20-8.95,20-20v-23.78c0-.93-.09-1.84-.21-2.74,70.17-60.49,159.61-99.2,257.72-105.55Z" fill="#fff"/>
</svg>