<?xml version="1.0" encoding="UTF-8"?>
<svg id="PUNTUALIDAD" xmlns="http://www.w3.org/2000/svg" viewBox="0 0 680.31 680.31">
  <path d="M464.86,375.14c-45.42,0-82.36,36.95-82.36,82.36s36.95,82.36,82.36,82.36,82.36-36.95,82.36-82.36-36.95-82.36-82.36-82.36Zm0,144.73c-34.39,0-62.36-27.98-62.36-62.36s27.98-62.36,62.36-62.36,62.36,27.98,62.36,62.36-27.98,62.36-62.36,62.36Z" fill="white"/>
  <path d="M221.18,144.68c-45.42,0-82.36,36.95-82.36,82.36s36.95,82.36,82.36,82.36,82.36-36.95,82.36-82.36-36.95-82.36-82.36-82.36Zm0,144.73c-34.39,0-62.36-27.98-62.36-62.36s27.98-62.36,62.36-62.36,62.36,27.98,62.36,62.36-27.98,62.36-62.36,62.36Z" fill="white"/>
  <path d="M473.13,468.81v-52.5c0-5.52-4.48-10-10-10s-10,4.48-10,10v72.5h49.47c5.52,0,10-4.48,10-10s-4.48-10-10-10h-29.47Z" fill="white"/>
  <path d="M229.04,200.79c3.76,0,7.39,.78,10.79,2.31,5.03,2.28,10.96,.04,13.23-5,2.27-5.03,.04-10.96-5-13.23-6-2.71-12.4-4.08-19.02-4.08-22.07,0-40.56,15.54-45.15,36.25h-2.15c-5.52,0-10,4.48-10,10s4.48,10,10,10h2.15c4.58,20.71,23.08,36.25,45.15,36.25,6.62,0,13.02-1.37,19.02-4.08,5.03-2.27,7.27-8.2,5-13.23-2.27-5.03-8.2-7.27-13.23-5-3.39,1.53-7.02,2.31-10.79,2.31-10.93,0-20.32-6.72-24.26-16.25h34.3c5.52,0,10-4.48,10-10s-4.48-10-10-10h-34.3c3.94-9.53,13.33-16.25,24.26-16.25Z" fill="white"/>
  <path d="M309.76,361.13c5.93,5.93,15.59,5.93,21.52,0l23.99-23.99c5.93-5.93,5.93-15.59,0-21.52l-12.74-12.74c8.38-13.41,14.53-28.26,18.09-43.66h18.01c8.39,0,15.22-6.83,15.22-15.22v-33.93c0-8.39-6.83-15.22-15.22-15.22h-18.01c-3.56-15.4-9.71-30.24-18.09-43.66l12.74-12.74c5.93-5.93,5.93-15.59,0-21.52l-23.99-23.99c-5.93-5.93-15.58-5.93-21.52,0l-12.74,12.74c-13.42-8.38-28.26-14.53-43.66-18.09v-18.01c0-8.39-6.83-15.22-15.22-15.22h-33.93c-8.39,0-15.22,6.83-15.22,15.22v18.01c-15.39,3.56-30.24,9.71-43.66,18.09l-12.74-12.74c-5.93-5.93-15.59-5.93-21.52,0l-23.99,23.99c-5.93,5.93-5.93,15.59,0,21.52l12.74,12.74c-8.38,13.42-14.53,28.26-18.09,43.66h-18.01c-8.39,0-15.22,6.83-15.22,15.22v33.93c0,8.39,6.83,15.22,15.22,15.22h18.01c3.56,15.4,9.71,30.24,18.09,43.66l-12.74,12.74c-5.93,5.93-5.93,15.59,0,21.52l23.99,23.99c5.93,5.93,15.59,5.93,21.52,0l12.74-12.74c13.42,8.38,28.26,14.53,43.66,18.09v18.01c0,8.39,6.83,15.22,15.22,15.22h33.93c8.39,0,15.22-6.83,15.22-15.22v-18.01c15.4-3.56,30.24-9.71,43.66-18.09l12.74,12.74Zm-68.05-12.71l-8.35,1.4v29.89h-24.36v-29.89l-8.35-1.4c-18.18-3.05-35.74-10.32-50.79-21.04l-6.89-4.91-21.13,21.13-17.23-17.23,21.13-21.13-4.91-6.89c-10.71-15.04-17.99-32.6-21.04-50.79l-1.4-8.35h-29.89v-24.36h29.89l1.4-8.35c3.05-18.18,10.33-35.74,21.04-50.79l4.91-6.89-21.13-21.13,17.23-17.23,21.13,21.13,6.89-4.91c15.04-10.71,32.61-17.99,50.79-21.04l8.35-1.4v-29.89h24.36v29.89l8.35,1.4c18.18,3.05,35.74,10.33,50.78,21.04l6.89,4.91,21.13-21.13,17.23,17.23-21.13,21.13,4.91,6.89c10.71,15.04,17.99,32.6,21.04,50.79l1.4,8.34h29.89v24.36h-29.89l-1.4,8.34c-3.05,18.18-10.33,35.74-21.04,50.79l-4.91,6.89,21.13,21.13-17.23,17.23-21.13-21.13-6.89,4.91c-15.04,10.71-32.6,17.99-50.78,21.04Z" fill="white"/>
  <path d="M632.4,488.98c-1.72-3.68-4.77-6.48-8.59-7.87l-16.93-6.16c1.93-15.7,1.23-31.75-2.06-47.21l16.32-7.61c3.68-1.72,6.48-4.77,7.87-8.59,1.39-3.82,1.21-7.95-.51-11.63l-14.34-30.75c-1.72-3.69-4.77-6.48-8.59-7.87-3.82-1.39-7.95-1.21-11.64,.51l-16.32,7.61c-9.73-12.45-21.58-23.31-34.84-31.92l6.16-16.93c1.39-3.82,1.21-7.95-.51-11.63-1.72-3.68-4.77-6.48-8.59-7.87l-31.88-11.6c-7.88-2.87-16.63,1.21-19.5,9.09l-6.16,16.93c-15.7-1.92-31.75-1.22-47.21,2.06l-7.61-16.32c-1.72-3.68-4.77-6.48-8.59-7.87-3.82-1.39-7.95-1.21-11.64,.51l-30.75,14.34c-3.68,1.72-6.48,4.77-7.87,8.59-1.39,3.82-1.21,7.95,.51,11.64l7.61,16.32c-12.45,9.73-23.31,21.58-31.92,34.84l-16.93-6.16c-7.88-2.87-16.63,1.21-19.5,9.09l-11.61,31.88c-1.39,3.82-1.21,7.95,.51,11.63,1.72,3.68,4.77,6.48,8.59,7.87l16.93,6.16c-1.93,15.7-1.23,31.75,2.06,47.21l-16.32,7.61c-7.6,3.54-10.91,12.62-7.36,20.22l14.34,30.75c1.72,3.69,4.77,6.48,8.59,7.87,3.82,1.39,7.95,1.21,11.63-.51l16.32-7.61c9.73,12.45,21.58,23.31,34.84,31.92l-6.16,16.93c-1.39,3.82-1.21,7.95,.51,11.64,1.72,3.68,4.77,6.48,8.59,7.87l31.88,11.6c1.71,.62,3.46,.92,5.19,.92,6.22,0,12.07-3.84,14.32-10.01l6.16-16.93c15.7,1.92,31.75,1.23,47.21-2.06l7.61,16.32c3.54,7.6,12.61,10.9,20.22,7.36l30.75-14.34c3.68-1.72,6.48-4.77,7.87-8.59s1.21-7.95-.51-11.64l-7.61-16.32c12.45-9.73,23.31-21.58,31.92-34.84l16.93,6.16c3.82,1.39,7.95,1.21,11.64-.51,3.68-1.72,6.48-4.77,7.87-8.59l11.6-31.88c1.39-3.82,1.21-7.95-.51-11.64Zm-28.25,32.18l-28.08-10.22-4.17,7.36c-9.11,16.07-21.95,30.08-37.14,40.53l-6.97,4.8,12.63,27.09-22.08,10.3-12.63-27.09-8.16,2.26c-17.77,4.92-36.76,5.75-54.92,2.4l-8.32-1.54-10.22,28.08-22.89-8.33,10.22-28.08-7.36-4.17c-16.07-9.11-30.08-21.95-40.53-37.14l-4.79-6.97-27.09,12.63-10.3-22.08,27.09-12.63-2.26-8.15c-4.92-17.77-5.75-36.76-2.4-54.92l1.54-8.32-28.08-10.22,8.33-22.89,28.08,10.22,4.17-7.36c9.11-16.07,21.95-30.08,37.14-40.53l6.97-4.8-12.63-27.09,22.08-10.3,12.63,27.09,8.16-2.26c17.77-4.92,36.76-5.75,54.92-2.4l8.32,1.54,10.22-28.08,22.89,8.33-10.22,28.08,7.36,4.17c16.07,9.11,30.08,21.95,40.53,37.14l4.79,6.97,27.09-12.63,10.3,22.08-27.09,12.63,2.26,8.16c4.92,17.77,5.75,36.76,2.4,54.92l-1.54,8.32,28.08,10.22-8.33,22.89Z" fill="white"/>
</svg>