<?xml version="1.0" encoding="UTF-8"?>
<svg id="PUNTUALIDAD" xmlns="http://www.w3.org/2000/svg" viewBox="0 0 680.31 680.31">
  <path
    d="M588.4,335.4c-5.52,0-10,4.48-10,10v95.61c0,4.74-3.86,8.6-8.6,8.6H89.68c-4.74,0-8.6-3.86-8.6-8.6V182.61c0-4.74,3.86-8.6,8.6-8.6h250.14c5.52,0,10-4.48,10-10s-4.48-10-10-10H89.68c-15.77,0-28.6,12.83-28.6,28.6V441.02c0,15.77,12.83,28.6,28.6,28.6h191.08v101.48h-89.21c-5.52,0-10,4.48-10,10s4.48,10,10,10H475.01c5.52,0,10-4.48,10-10s-4.48-10-10-10h-89.21v-101.48h184c15.77,0,28.6-12.83,28.6-28.6v-95.61c0-5.52-4.48-10-10-10Zm-222.6,235.7h-65.04v-101.48h65.04v101.48Z"
    fill="white" />
  <path
    d="M638.35,286.48l-38.84-66.35c10.26-10.92,16.02-25.26,16.02-40.5,0-32.69-26.59-59.28-59.28-59.28-4.81,0-9.54,.58-14.15,1.71l-38.7-66.12c-3.08-5.26-8.55-8.7-14.62-9.19-6.07-.49-12.02,2.02-15.91,6.71l-138.97,167.92-62.02,40.95c-15.66,9.27-26.81,24.06-31.41,41.68-4.62,17.71-2.07,36.16,7.19,51.95,12.74,21.73,35.69,33.85,59.23,33.85,11.76,0,23.66-3.02,34.52-9.38l11.57-6.7,31.95,54.78c5.07,8.69,14.29,13.57,23.73,13.57,4.6,0,9.25-1.16,13.51-3.59l12.9-7.37c6.4-3.66,10.97-9.59,12.87-16.72,1.9-7.12,.89-14.55-2.83-20.91l-30.16-51.44,209.7-27.59c6.23-.82,11.59-4.67,14.35-10.31s2.52-12.24-.66-17.66Zm-82.1-146.13c21.66,0,39.28,17.62,39.28,39.28,0,8.02-2.4,15.66-6.8,22.1l-35.84-61.23c1.11-.09,2.23-.14,3.36-.14Zm-224.9,222.79l-.04,.03c-23.08,13.53-52.87,5.76-66.4-17.32-6.55-11.18-8.36-24.25-5.09-36.79s11.23-23.06,22.41-29.61l52.52-34.67,50.93,86.89-54.33,31.47Zm97.27,46.1c-.51,1.92-1.75,3.52-3.47,4.51l-12.9,7.37c-3.5,2-8.01,.8-10.04-2.69l-31.92-54.72,25.52-14.78,32.05,54.68c1,1.72,1.28,3.72,.76,5.64Zm-77.92-176.8l97.85-118.24,110.97,188.64-155.55,20.47-53.27-90.87Zm230.35,67.57l-118.94-202.2,24.97-30.17,36.01,61.51h0s60.93,104.09,60.93,104.09h0s36.08,61.63,36.08,61.63l-39.04,5.14Z"
    fill="white" />
</svg>