<?xml version="1.0" encoding="UTF-8"?>
<svg id="PUNTUALIDAD" xmlns="http://www.w3.org/2000/svg" viewBox="0 0 680.31 680.31">
  <path d="M603.62,155.84H76.69c-11.05,0-20,8.95-20,20V447.65c0,11.05,8.95,20,20,20h210.94v103.39h-89.21c-5.52,0-10,4.48-10,10s4.48,10,10,10H481.89c5.52,0,10-4.48,10-10s-4.48-10-10-10h-89.21v-103.39h210.94c11.05,0,20-8.95,20-20V175.84c0-11.05-8.95-20-20-20Zm-230.94,415.2h-65.04v-103.39h65.04v103.39Zm230.94-123.39H76.69V175.84H603.62V447.65Z" fill="white"/>
  <path d="M418.13,403.86c1.95,1.95,4.51,2.93,7.07,2.93s5.12-.98,7.07-2.93l92.11-92.11-92.11-92.11c-3.91-3.91-10.24-3.9-14.14,0-3.91,3.91-3.91,10.24,0,14.14l77.97,77.97-77.97,77.97c-3.91,3.91-3.91,10.24,0,14.14Z" fill="white"/>
  <path d="M255.12,406.79c2.56,0,5.12-.98,7.07-2.93,3.91-3.91,3.91-10.24,0-14.14l-77.97-77.97,77.97-77.97c3.91-3.91,3.91-10.24,0-14.14-3.91-3.91-10.24-3.9-14.14,0l-92.11,92.11,92.11,92.11c1.95,1.95,4.51,2.93,7.07,2.93Z" fill="white"/>
  <path d="M309.06,420.58c.92,.26,1.84,.39,2.75,.39,4.35,0,8.36-2.86,9.61-7.26l56.69-198.42c1.52-5.31-1.56-10.85-6.87-12.36-5.31-1.52-10.84,1.56-12.36,6.87l-56.69,198.42c-1.52,5.31,1.56,10.85,6.87,12.36Z" fill="white"/>
</svg>