<?xml version="1.0" encoding="UTF-8"?>
<svg id="Capa_2" xmlns="http://www.w3.org/2000/svg"
    xmlns:xlink="http://www.w3.org/1999/xlink" viewBox="0 0 49.82 55.22">
    <defs>
        <style>
            .cls-1 {
                fill: #fff;
            }

            .cls-2 {
                clip-path: url(#clippath);
            }

            .cls-3 {
                fill: none;
            }
        </style>
        <clipPath id="clippath">
            <path class="cls-3"
                d="M8.74,30.23c0,9.08,7.36,16.45,16.45,16.45s16.45-7.36,16.45-16.45-7.36-16.45-16.45-16.45S8.74,21.15,8.74,30.23" />
        </clipPath>
    </defs>
    <g id="Capa_1-2">
        <g>
            <path class="cls-1"
                d="M41.49,22.68c1.07,2.32,1.68,4.91,1.68,7.63,0,10.07-8.19,18.26-18.26,18.26S6.65,40.37,6.65,30.31,14.84,12.05,24.91,12.05c2.36,0,4.62,.46,6.7,1.28,.71-.9,2.71-3.49,4.2-5.42-3.29-1.61-6.99-2.51-10.9-2.51C11.17,5.4,0,16.57,0,30.31s11.17,24.91,24.91,24.91,24.91-11.18,24.91-24.91c0-4.82-1.37-9.31-3.75-13.13l-4.58,5.5Z" />
            <g class="cls-2">
                <path class="cls-1"
                    d="M25.87,42.26c.31-.48,.49-1.05,.49-1.67,0-1.47-1.03-2.69-2.4-3-.05-.04-.1-.08-.15-.13,.16-.28,.25-.61,.25-.95,0-1.01-.77-1.84-1.76-1.94,1.2-1.98,2.48-3.77,2.48-3.77-1.08-.15-.87-2.13-.87-2.13-1.1,.66-4.63,2.39-6.43,3.26-.38-.78-1.18-1.31-2.11-1.31-.73,0-1.38,.33-1.81,.86-.49-.75-1.34-1.25-2.3-1.25-1.3,0-2.39,.91-2.67,2.12-.02,.03-.05,.06-.07,.1,0,0-3.69,10.48,4.03,15.08,0,0,8.54,0,16.87-.75,0,0,.58-3.77-3.55-4.53" />
            </g>
            <path class="cls-1"
                d="M49.33,0l-.61,.21c-.29,.12-.38,.46-.38,.46l.03,.73s-.58,.94-1.29,1.44c-.71,.5-1.55,2.37-1.55,2.37,0,0-.91,.88-1.1,.92-.18,.04-.46,.29-.46,.29-.33,.06-.08-1.03-.08-1.03,.42-.46,.23-.7,.23-.7l-.67-.37-.02-.51c-.29,.09-.8,0-.8,0-.49-.34-.71-.37-.71-.37v-.37c-.19,.08-.58,.5-.58,.5v-.29c-.58,.43-.95,1.25-.95,1.25l-.16-.21-.12,.52c-.05,.59,.51,1.75,.51,1.75l.3,.13-.36,.05c-1.29-.2-2.22,1.19-2.22,1.19-.82,.44-1.89,1.98-1.89,1.98-.31,.34-.37,.75-.37,.75-.35,.24-.64,.53-.89,.83h0c-.74,.9-1.05,1.92-1.14,2.27h0l-.02,.07v.06s-.03,.03-.05,.08v.02s-.03,.05-.04,.07v.03s-.04,.06-.05,.1l-.02,.04c-.07,.19-.17,.41-.25,.61l-.47,.45v.07l-.29-.1c-.12-.05-.26,.01-.32,.13l-.19,.43-1.76-.77c-.18-.08-.38,0-.46,.18l-1.79,4.08c-.08,.18,0,.38,.18,.46l2.38,1.05c-1.22,1.09-1.75,2.59-2.19,3.2-.62,.87-.65,.21-1.27,.24-.62,.03-.63,.65-.72,1.26-.08,.61-.2,.47-.64,1.29-.44,.82,.08,1.97,.08,1.97,.23,.81,.93-.48,1.07-.7,.14-.22,.43-.13,.43-.13,0,0,.18,.83,.37,.94,.19,.1,.87-.95,.87-.95,1.27-1.19,2.15-2.76,2.15-2.76,.62-.39,2.62-2.23,3.28-2.84l.3,.13c.18,.08,.38,0,.46-.18l.24-.55c.1-.06,.17-.11,.17-.11,.81,0,1.04-.59,1.04-.59l.32-.16c1.6-.3,2.7-.83,3.45-1.37l.04-.03c.06-.05,.12-.09,.18-.14,.01-.01,.03-.02,.04-.03,.06-.05,.12-.1,.18-.15h0c.06-.06,.12-.12,.18-.17l.02-.02s.09-.09,.14-.14l.03-.03s.08-.09,.12-.14h0c.04-.06,.08-.11,.12-.16h0s.07-.09,.09-.13l.02-.02s.05-.07,.07-.11h0c.05-.09,.09-.16,.13-.23v-.02s.03-.05,.04-.07h0c.02-.06,.04-.1,.05-.13h0v-.03h.01v-.02s.16-.14,.38-.37h0c.3-.32,.72-.8,1.02-1.3,.51-.86,1.36-2.54,1.36-2.54l.7-.8c.27-.45,.59-1.63,.59-1.63,.06-.3,.24-1.25,.24-1.25,.03-1.03-.3-1.85-.3-1.85l-.02-.58c.77-.8,1-1.4,1-1.4l.25-.27c1.26-1.26,1.35-2.69,1.35-2.69,.24-.45,.41-.68,.41-.68,.39-.2,.67-.65,.67-.65l.21-.3c.27-.49-.35-1.41-.35-1.41m-11.67,11.32c1.87-.81,2.2-1.55,2.2-1.55l-.06,.41c-.06,.4,.31,1.34,.5,1.51,.19,.17,.46,.6,.46,.6-.1,.26-.67,1.42-.67,1.42-.4,.06-.75,.18-1.05,.34h0s-.04,.03-.07,.04c-.07,.04-.14,.08-.2,.12-.03,.02-.06,.05-.1,.07-.05,.04-.1,.07-.14,.11-.03,.03-.06,.05-.09,.08-.04,.04-.09,.08-.13,.12-.03,.03-.05,.05-.08,.08-.05,.05-.09,.1-.13,.15-.01,.02-.03,.03-.04,.05-.05,.07-.1,.13-.15,.2-.02,.03-.04,.05-.05,.08-.03,.04-.06,.08-.08,.12-.02,.03-.03,.06-.05,.08-.02,.04-.04,.08-.07,.11-.01,.03-.03,.05-.04,.07-.02,.04-.04,.08-.06,.12,0,.02-.02,.04-.03,.06-.02,.05-.05,.1-.07,.15,0,.02-.01,.03-.02,.05-.01,.03-.02,.06-.04,.09,0,.02-.01,.03-.02,.05,0,.02-.02,.04-.02,.06v.03s-.02,.03-.02,.04v.04c-.09,.03-.16,.08-.24,.12-.02,.01-.04,.02-.06,.04h-.02c-.41,.25-.83,.61-1.23,.99l-.99-.44,.19-.4c.05-.11,.02-.23-.07-.3,.14-.28,.25-.67,.17-1.05-.01-.05-.02-.1-.04-.15,0-.02,0-.05,0-.07,0-.32,.28-.58,.41-.69h0s.04-.03,.05-.04h.02c.1-.12,.2-.21,.29-.31,.03-.03,.05-.06,.08-.08,.07-.07,.13-.14,.19-.21l.07-.08c.08-.09,.15-.17,.22-.25l.07-.09c.04-.05,.09-.1,.13-.15,.03-.04,.06-.07,.09-.11,.03-.04,.06-.07,.08-.11,.08-.1,.15-.19,.21-.28h0c.55-.78,.67-1.21,.67-1.21m-3.44,5.1l.21,.12-.08,.17-.37-.16,.24-.12Zm-1.32-.61l.13,.05-.05,.24-.18-.08,.09-.21Z" />
        </g>
    </g>
</svg>