<?xml version="1.0" encoding="UTF-8"?>
<svg id="PUNTUALIDAD" xmlns="http://www.w3.org/2000/svg" viewBox="0 0 680.31 680.31">
  <path d="M198.63,386.85c-36.77,0-66.69,29.92-66.69,66.69s29.92,66.69,66.69,66.69,66.69-29.92,66.69-66.69-29.92-66.69-66.69-66.69Zm0,113.39c-25.75,0-46.69-20.95-46.69-46.69s20.95-46.69,46.69-46.69,46.69,20.95,46.69,46.69-20.95,46.69-46.69,46.69Z" fill="#488f42"/>
  <path d="M482.1,386.85c-36.77,0-66.69,29.92-66.69,66.69s29.92,66.69,66.69,66.69,66.69-29.92,66.69-66.69-29.92-66.69-66.69-66.69Zm0,113.39c-25.75,0-46.69-20.95-46.69-46.69s20.95-46.69,46.69-46.69,46.69,20.95,46.69,46.69-20.95,46.69-46.69,46.69Z" fill="#488f42"/>
  <path d="M586.89,422.78c-.04-.16-.08-.31-.13-.47l-.13-.39c-.47-1.56-.98-3.11-1.52-4.65l-54.27-165.39c-5.72-18.02-17.23-32.87-32.11-42.8l-1.97-15.74c-1.8-14.39-9.1-27.21-20.55-36.11s-25.68-12.81-40.07-11c-29.7,3.72-50.84,30.92-47.12,60.62l2.28,18.21c-9.5,11.54-15.85,25.75-17.78,41.32h-66.32c-1.93-15.57-8.28-29.78-17.78-41.32l2.28-18.21c3.72-29.7-17.42-56.9-47.12-60.62-14.38-1.8-28.62,2.1-40.07,11-11.45,8.9-18.75,21.73-20.55,36.11l-1.97,15.73c-14.87,9.92-26.37,24.75-32.08,42.72l-54.31,165.51c-.53,1.51-1.04,3.04-1.5,4.58l-.14,.42c-.06,.17-.09,.34-.14,.51-2.86,9.75-4.41,20.06-4.41,30.73,0,60.22,48.99,109.21,109.21,109.21s109.21-48.99,109.21-109.21v-53.78h65.04v53.78c0,60.22,48.99,109.21,109.21,109.21s109.21-48.99,109.21-109.21c0-10.68-1.55-21-4.42-30.76Zm-75.09-164.75l35.4,107.89c-18.19-13.55-40.73-21.59-65.11-21.59-36.81,0-69.42,18.3-89.21,46.29v-114.24c0-33.56,27.3-60.87,60.87-60.87,26.65,0,49.97,17.05,58.06,42.52Zm-203.96,28.35h65.04v50.87h-65.04v-50.87Zm107.97-107.32c5.62-7.23,13.72-11.84,22.81-12.98,9.1-1.14,18.08,1.33,25.31,6.95,7.23,5.62,11.84,13.72,12.98,22.81l.4,3.15c-7.49-2.26-15.41-3.48-23.56-3.48-16.36,0-31.59,4.9-44.33,13.28l-.55-4.43c-1.14-9.09,1.33-18.08,6.95-25.31Zm-212,16.78c1.14-9.09,5.75-17.19,12.98-22.81s16.21-8.09,25.31-6.95c9.09,1.14,17.19,5.75,22.81,12.98,5.62,7.23,8.09,16.22,6.95,25.31l-.55,4.43c-12.74-8.38-27.97-13.28-44.33-13.28-8.16,0-16.07,1.22-23.56,3.48l.4-3.15Zm-34.86,62.1c8.06-25.38,31.37-42.43,58.03-42.43,33.56,0,60.87,27.3,60.87,60.87v114.24c-19.8-27.98-52.41-46.29-89.21-46.29-24.38,0-46.92,8.03-65.11,21.59l35.43-107.98Zm29.68,284.82c-49.19,0-89.21-40.02-89.21-89.21,0-8.92,1.32-17.53,3.77-25.67l1.37-4.16c12.3-34.57,45.34-59.39,84.08-59.39,49.19,0,89.21,40.02,89.21,89.21s-40.02,89.21-89.21,89.21Zm109.21-162.99v-22.52h65.04v22.52h-65.04Zm174.25,162.99c-49.19,0-89.21-40.02-89.21-89.21s40.02-89.21,89.21-89.21c38.72,0,71.76,24.8,84.07,59.35l1.38,4.22c2.44,8.12,3.76,16.73,3.76,25.64,0,49.19-40.02,89.21-89.21,89.21Z" fill="#488f42"/>
</svg>