<?xml version="1.0" encoding="UTF-8"?>
<svg id="PUNTUALIDAD" xmlns="http://www.w3.org/2000/svg" viewBox="0 0 680.31 680.31">
  <path d="M407.69,194.25c15.28,0,27.72-12.43,27.72-27.72,0-5.52-4.48-10-10-10s-10,4.48-10,10c0,4.25-3.46,7.72-7.72,7.72s-7.72-3.46-7.72-7.72c0-5.52-4.48-10-10-10s-10,4.48-10,10c0,15.28,12.43,27.72,27.72,27.72Z" fill="#488f42"/>
  <path d="M629.24,283.15l-59.1-63.15c-1.81-1.94-4.32-3.07-6.97-3.16-2.67-.08-5.23,.88-7.17,2.69l-39.75,37.19,1.94-2.38,.38-.5c1.6-2.24,38.96-55.41,14.61-96-.91-1.51-2.15-2.69-3.57-3.51,2.55-5.02,3.96-8.14,4.13-8.54,1.38-3.09,1.09-6.67-.75-9.51s-5-4.55-8.38-4.55h-73.03c-10.28-12.94-26.13-21.26-43.9-21.26s-33.62,8.32-43.9,21.26h-94.29c-3.14,0-6.09,1.47-7.98,3.98-1.89,2.5-2.49,5.75-1.63,8.77,.5,1.74,10.27,35.32,30.18,60.29-44.19,7.53-81.38,22.24-110.66,43.85-26.1,19.26-45.95,43.92-59.01,73.3-22.12,49.78-16.97,95.46-16.74,97.38,.19,1.54,.72,2.96,1.5,4.18-3.85,23.4-2.37,46.31,4.42,67.07,12.37,37.8,41.32,63.67,80,71.86l-127.87,119.65c-1.94,1.81-3.07,4.32-3.16,6.97-.09,2.65,.88,5.23,2.69,7.16l59.1,63.15c1.97,2.1,4.63,3.17,7.3,3.17,2.45,0,4.9-.89,6.83-2.7L492.44,424.86c3.4,1.27,7.07,1.99,10.92,1.99,15.47,0,28.35-11.3,30.82-26.08,8.77-5.54,14.61-15.32,14.61-26.44,0-.72-.03-1.42-.08-2.13l80.06-74.92c4.03-3.77,4.24-10.1,.47-14.13Zm-221.55-152.68c19.89,0,36.06,16.18,36.06,36.06s-16.18,36.06-36.06,36.06-36.06-16.18-36.06-36.06,16.18-36.06,36.06-36.06Zm-54.06,21.26c-1.29,4.72-2,9.68-2,14.8,0,30.91,25.15,56.06,56.06,56.06s56.06-25.15,56.06-56.06c0-5.12-.7-10.08-2-14.8h46.61c-17.38,32.01-65.51,107.56-132.56,107.56-46.96,0-53.6-46.01-53.86-47.93-.34-2.69-1.75-5.13-3.92-6.76-16.94-12.71-28.59-37.66-34.47-52.87h70.08ZM128.12,738.38l-45.43-48.55,133.11-124.56c.28-.26,.53-.53,.77-.81,18.22-1.33,35.85-8.21,51.06-20.19,22.73-17.91,37.16-44.8,39.57-73.76,1.03-12.37-.72-24.34-4.7-35.31h3.68c5.51,0,10,4.49,10,10v43.78c0,17.24,14.02,31.26,31.26,31.26,11.12,0,20.89-5.84,26.44-14.61,1.35-.23,2.67-.53,3.96-.93l-249.73,233.68Zm250.59-293.2v-36.68c0-13.63-5.49-26.01-14.37-35.03l22.72-18.17v.3c0,27.57,22.43,50,50,50h36.68c.78,2.3,1.82,4.47,3.08,6.5l-78.89,73.82c1.32-3.45,2.05-7.2,2.05-11.11,0-13.74-8.91-25.44-21.26-29.62Zm124.65-38.33c-6.21,0-11.26-5.05-11.26-11.26,0-5.52-4.48-10-10-10h-45.04c-16.54,0-30-13.46-30-30v-50.87c0-5.52-4.48-10-10-10s-10,4.48-10,10v25.87c-1.18,.36-2.31,.94-3.33,1.75l-35.43,28.35c-.49,.39-.92,.82-1.32,1.28-5.66-2.23-11.82-3.47-18.26-3.47h-45.04c-5.52,0-10,4.48-10,10s4.48,10,10,10h45.04c16.54,0,30,13.46,30,30v45.04c0,5.52,4.48,10,10,10,6.21,0,11.26,5.05,11.26,11.26,0,3.14-1.3,5.99-3.38,8.03-1.83-2.34-4.68-3.86-7.88-3.86-5.52,0-10,4.48-10,10,0,6.21-5.05,11.26-11.26,11.26s-11.26-5.05-11.26-11.26v-43.78c0-16.54-13.46-30-30-30h-14.16c-13.79-19.41-35.7-32.87-61.24-34.99-37.86-3.15-71.25,25.09-74.4,62.96-2.62,31.39,20.8,59.06,52.19,61.68,12.7,1.06,25.05-2.89,34.78-11.12,9.73-8.23,15.67-19.76,16.73-32.46,.89-10.69-2.43-21.09-9.37-29.28-6.93-8.19-16.63-13.19-27.33-14.08-9.07-.76-17.92,2.07-24.88,7.96s-11.21,14.14-11.97,23.22c-.46,5.5,3.63,10.34,9.14,10.8,5.48,.45,10.34-3.63,10.8-9.14,.31-3.76,2.07-7.18,4.95-9.61,2.88-2.44,6.54-3.6,10.3-3.3,5.37,.45,10.24,2.96,13.72,7.07s5.15,9.33,4.7,14.7c-.61,7.38-4.06,14.07-9.71,18.85-5.65,4.78-12.83,7.07-20.2,6.46-20.4-1.7-35.62-19.68-33.92-40.09,2.24-26.88,25.92-46.92,52.81-44.69,34.97,2.91,61.05,33.74,58.14,68.71-1.95,23.46-13.62,45.22-32.02,59.71-16.39,12.92-36.24,18.36-55.88,15.33-34.84-5.38-59.98-26.52-70.78-59.55-15.12-46.2,1.63-104.15,41.67-144.19,3.91-3.91,3.91-10.24,0-14.14-3.91-3.91-10.24-3.91-14.14,0-10.9,10.9-20.3,22.97-28.06,35.86,2.4-10.3,5.9-21.37,10.96-32.59,26.62-59.09,82.14-94.89,165-106.44,1.7,6.18,4.76,14.8,10.15,23.41,9.42,15.08,27.76,33.05,61.63,33.05,40.8,0,81.17-23.34,116.74-67.51,10.82-13.43,19.61-26.77,26.27-37.92,10.6,27.92-14.18,64.98-16.36,68.14l-58.7,72.08v18.99c0,16.54,13.46,30,30,30h43.78c6.21,0,11.26,5.05,11.26,11.26s-5.05,11.26-11.26,11.26c-5.52,0-10,4.48-10,10,0,3.2,1.51,6.05,3.86,7.88-2.04,2.08-4.89,3.38-8.03,3.38Zm36.81-54.04c-5.7-5.99-13.74-9.74-22.64-9.74h-43.78c-5.46,0-9.9-4.39-9.99-9.83l98.61-92.28,45.43,48.55-67.63,63.29Z" fill="#488f42"/>
</svg>